<?xml version="1.0" encoding="utf-8"?>
<!-- Generator: Adobe Illustrator 26.2.1, SVG Export Plug-In . SVG Version: 6.00 Build 0)  -->
<svg version="1.1" id="Layer_1" xmlns="http://www.w3.org/2000/svg" xmlns:xlink="http://www.w3.org/1999/xlink" x="0px" y="0px"
	 viewBox="0 0 187 60" style="enable-background:new 0 0 187 60;" xml:space="preserve">
<style type="text/css">
	.st0{opacity:0;fill:#292930;}
	.st1{fill:#6CC1B1;}
	.st2{fill:#A2D5CF;}
	.st3{fill:#2E2E2E;}
	.st4{fill:#2D2D2D;}
</style>
<g>
	<rect class="st0" width="187" height="60"/>
	<g id="Layer_2_00000096743402266700797110000016142043450396238488_">
		<g id="Layer_1-2">
			<path class="st1" d="M21.6,8.4C33.9,7.9,42.9,17.6,43.3,30C42.7,43.2,33,52.3,21.6,51.6c-6.1-0.4-11.5-3.7-15.3-7.5
				C2.5,40.1,0.2,35.6,0,30C0.5,18.7,10.2,9.7,21.6,8.4z"/>
			<path class="st2" d="M21.6,12.7c9.5,4.4,17.3,7.1,17.3,17.3s-7.7,12.9-17.3,17.3S4.4,38.9,4.4,30S12.1,8.3,21.6,12.7z"/>
			<path class="st3" d="M15.4,29.5c-0.2-0.2-0.6-0.2-0.8,0s-0.2,0.4-0.1,0.6c1.8,4.6,7,6.8,11.6,5c2.2-0.9,4-2.6,4.9-4.8
				c0.1-0.3,0-0.6-0.3-0.8c-0.2-0.1-0.5,0-0.6,0.1C27.4,32.2,21.9,35.8,15.4,29.5z"/>
			<path class="st4" d="M27.3,23.7c0.7,1.7,2.6,2.5,4.3,1.8c0.8-0.3,1.5-1,1.8-1.8c0.1-0.3,0-0.6-0.3-0.7c-0.2-0.1-0.4,0-0.6,0.1
				c-1,1-2.6,1.7-4.4-0.1c-0.1-0.1-0.2-0.1-0.4-0.2c-0.1,0-0.2,0-0.3,0.1C27.3,23.2,27.2,23.5,27.3,23.7z"/>
			<path class="st4" d="M12,23.7c0.7,1.7,2.6,2.5,4.3,1.8c0.8-0.3,1.5-1,1.8-1.8c0.1-0.3,0-0.6-0.3-0.7c-0.2-0.1-0.4,0-0.6,0.1
				c-1,1-2.6,1.7-4.4-0.1c-0.1-0.1-0.2-0.2-0.4-0.2c-0.1,0-0.2,0-0.3,0.1C12,23.2,11.9,23.5,12,23.7z"/>
			<path class="st3" d="M55.2,24.6c1.3,0.8,2.4,2,3.2,3.4c0.8,1.5,1.2,3.2,1.2,5c0,1.7-0.4,3.4-1.2,4.9c-0.7,1.4-1.8,2.6-3.2,3.4
				c-1.4,0.8-2.9,1.2-4.5,1.2c-2.7,0-4.6-1-5.9-3.1l-1.4,2.8h-3.8V15.6H45v10.7c1.3-2,3.2-3,5.8-3C52.3,23.3,53.9,23.8,55.2,24.6z
				 M52.8,36.6c0.9-1,1.3-2.3,1.3-3.6c0.1-1.3-0.4-2.7-1.3-3.7c-0.8-0.9-2-1.5-3.3-1.4c-1.3-0.1-2.5,0.5-3.3,1.4
				c-0.9,1-1.3,2.3-1.3,3.7c-0.1,1.3,0.4,2.6,1.3,3.7C48,38.4,51,38.4,52.8,36.6L52.8,36.6L52.8,36.6z"/>
			<path class="st3" d="M73.7,24.7c1.4,0.8,2.5,2,3.2,3.4s1,3,1,4.6l-0.1,2.1H64.9c0,0.5,0.2,1.1,0.4,1.6c0.3,0.6,0.7,1.1,1.3,1.4
				c0.7,0.4,1.6,0.6,2.4,0.6s1.6-0.2,2.3-0.6c0.6-0.3,1.1-0.8,1.5-1.3l4.1,2c-0.9,1.3-2.1,2.3-3.4,3c-1.4,0.7-2.9,1-4.4,1
				c-1.8,0-3.6-0.4-5.2-1.2c-1.4-0.7-2.6-1.9-3.5-3.3c-0.8-1.5-1.3-3.2-1.2-4.9c0-1.8,0.4-3.5,1.2-5.1c0.7-1.4,1.9-2.6,3.3-3.4
				c1.5-0.8,3.2-1.2,4.8-1.2C70.4,23.3,72.2,23.8,73.7,24.7z M71.4,28.6c-0.7-0.8-1.7-1.2-2.8-1.1c-1-0.1-2,0.4-2.7,1.1
				c-0.6,0.7-1,1.6-1,2.6h7.5C72.4,30.3,72.1,29.4,71.4,28.6L71.4,28.6z"/>
			<path class="st3" d="M90.3,37.4v4.2c-1.5,0.6-3.1,0.9-4.8,0.9c-1.6,0.1-3.1-0.5-4.2-1.7s-1.7-2.8-1.6-4.4V28h-3v-4.3h3l3.9-5.4
				H85v5.4h5V28h-5v7.4c0,0.7,0.2,1.3,0.6,1.9c0.4,0.5,1,0.7,1.7,0.7C88.3,38,89.3,37.8,90.3,37.4z"/>
			<path class="st3" d="M102.7,37.4v4.2c-1.5,0.6-3.1,0.9-4.8,0.9c-1.6,0.1-3.1-0.5-4.2-1.7S92,38,92.1,36.4V28h-3v-4.3h3l3.9-5.4
				h1.4v5.4h5.1V28h-5.1v7.4c0,0.7,0.2,1.3,0.6,1.9c0.4,0.5,1,0.7,1.6,0.7C100.7,38,101.8,37.8,102.7,37.4z"/>
			<path class="st3" d="M116.4,24.7c1.4,0.8,2.5,2,3.2,3.4s1,3,1,4.6l-0.1,2.1h-12.9c0,0.5,0.2,1.1,0.4,1.6c0.3,0.6,0.7,1.1,1.3,1.4
				c1.5,0.8,3.3,0.8,4.7,0c0.6-0.3,1.1-0.8,1.5-1.3l4.1,2c-0.9,1.3-2.1,2.3-3.4,3c-1.4,0.7-2.9,1-4.4,1c-1.8,0-3.6-0.4-5.2-1.2
				c-1.4-0.7-2.6-1.9-3.4-3.3c-0.8-1.5-1.3-3.2-1.2-4.9c0-1.8,0.4-3.5,1.2-5.1c0.7-1.4,1.9-2.6,3.3-3.4c1.5-0.8,3.1-1.3,4.8-1.2
				C113,23.3,114.8,23.8,116.4,24.7z M114.1,28.6c-0.6-0.8-1.6-1.1-2.8-1.1c-1-0.1-2,0.4-2.7,1.1c-0.6,0.7-1,1.6-1,2.6h7.5
				C115.1,30.3,114.7,29.4,114.1,28.6L114.1,28.6z"/>
			<path class="st3" d="M129.1,24.1c1.2-0.5,2.5-0.8,3.9-0.7l-0.4,4.8c-1.8,0-3.3,0.4-4.5,1.2c-1.1,0.7-1.7,1.8-1.7,3.1v9.7h-5.3
				V23.7h3.8l1.4,2.6C127.1,25.3,128.1,24.6,129.1,24.1z"/>
			<path class="st1" d="M144.9,39.4c-0.6,1-1.4,1.8-2.4,2.3c-1.1,0.5-2.3,0.8-3.5,0.8c-3.2,0-6.2-1.7-7.6-4.6
				c-0.8-1.5-1.2-3.2-1.2-4.9c0-1.7,0.4-3.4,1.2-5c0.7-1.4,1.8-2.6,3.2-3.4c1.3-0.8,2.9-1.3,4.5-1.2c1.2,0,2.3,0.2,3.4,0.8
				c1,0.5,1.8,1.3,2.4,2.2V15.6h5.3v26.5h-3.7L144.9,39.4z M143.5,36.6c0.9-1,1.3-2.3,1.3-3.7c0.1-1.3-0.4-2.7-1.3-3.7
				c-1.7-1.8-4.6-1.9-6.5-0.1l-0.1,0.1c-0.9,1-1.3,2.3-1.3,3.7c-0.1,1.3,0.4,2.6,1.3,3.6C138.7,38.4,141.7,38.4,143.5,36.6
				L143.5,36.6L143.5,36.6z"/>
			<path class="st1" d="M163.5,24.3c1.2,0.6,2.2,1.4,2.9,2.5s1,2.4,1,3.8v11.6h-3.8l-1.3-2.4c-0.6,0.8-1.4,1.5-2.2,2
				c-1,0.5-2,0.8-3.1,0.8c-2,0-3.5-0.5-4.7-1.6s-1.8-2.6-1.8-4.2c0-1.1,0.3-2.2,1-3.1c0.7-0.9,1.7-1.7,2.8-2.1
				c1.3-0.5,2.7-0.8,4.2-0.7c1.2,0,2.5,0.1,3.7,0.4v-0.5c0-0.9-0.5-1.7-1.2-2.3c-0.9-0.6-1.9-0.9-2.9-0.8c-1.5,0-2.9,0.4-4.1,1.3
				l-2.3-3.1c1-0.8,2.2-1.4,3.5-1.8c1.4-0.4,2.8-0.6,4.3-0.6C160.8,23.3,162.2,23.6,163.5,24.3z M161,37.6c0.7-0.8,1.1-1.9,1.1-3
				c-1-0.2-2-0.3-3.1-0.3c-0.8,0-1.6,0.2-2.3,0.6c-0.6,0.4-0.9,1-0.9,1.6s0.2,1.2,0.7,1.6c0.5,0.4,1.2,0.6,1.9,0.6
				C159.4,38.8,160.4,38.3,161,37.6z"/>
			<path class="st1" d="M175.8,48.5c-1,1-2.4,1.4-4.2,1.4c-1,0-2-0.1-2.9-0.5l0.5-4.3c0.5,0.2,1,0.3,1.5,0.3c0.6,0,1.1-0.2,1.5-0.5
				c0.5-0.5,0.9-1.1,1.2-1.8l0.7-1.5l-7.8-18h5.7l4.7,12.3l4.3-12.3h5.8l-8.4,20.2C177.8,46,176.8,47.6,175.8,48.5z"/>
		</g>
	</g>
</g>
</svg>
